# xmcd CD database file
#
# Track frame offsets:
#	150
#	15843
#	29577
#	50879
#	69643
#	95538
#	118522
#	145008
#	164741
#	182934
#	204859
#	226440
#	248238
#	266307
#	285594
#	306350
#	327333
#
# Disc length: 4672 seconds
#
# Revision: 27
# Processed by: cddbd v1.5.2PL0 Copyright (c) Steve Scherf et al.
# Submitted via: CDex 2.06
#
DISCID=f6123e11
DTITLE=Elton John - Greatest Hits 1970-2002 - Disc 2
DYEAR=2002
DGENRE=Pop
TTITLE0=Blue Eyes
TTITLE1=I'm Still Standing
TTITLE2=I Guess That's Why They Call It The Blues
TTITLE3=Sad Songs (Say So Much)
TTITLE4=Nikita
TTITLE5=Sacrifice
TTITLE6=The One
TTITLE7=Kiss The Bride
TTITLE8=Can You Feel The Love Tonight
TTITLE9=Circle Of Life
TTITLE10=Believe
TTITLE11=Made In England
TTITLE12=Something About The Way You Look Tonight
TTITLE13=Written In The Stars (with LeAnn Rimes)
TTITLE14=I Want Love
TTITLE15=This Train Don't Stop There Anymore
TTITLE16=Song For Guy
EXTD=YEAR: 2002
EXTT0=
EXTT1=
EXTT2=
EXTT3=
EXTT4=
EXTT5=
EXTT6=
EXTT7=
EXTT8=
EXTT9=
EXTT10=
EXTT11=
EXTT12=
EXTT13=
EXTT14=
EXTT15=
EXTT16=
PLAYORDER=
